<?xml version="1.0" standalone="no"?><!DOCTYPE svg PUBLIC "-//W3C//DTD SVG 1.1//EN" "http://www.w3.org/Graphics/SVG/1.1/DTD/svg11.dtd"><svg xmlns:xlink="http://www.w3.org/1999/xlink" version="1.1" class="highcharts-root" style="font-family:&quot;Lucida Grande&quot;, &quot;Lucida Sans Unicode&quot;, Arial, Helvetica, sans-serif;font-size:12px;" xmlns="http://www.w3.org/2000/svg" width="600" height="300" viewBox="0 0 600 300"><desc>Created with Highcharts 7.2.0</desc><defs><clipPath id="highcharts-xbv87p4-11-"><rect x="0" y="0" width="580" height="232" fill="none"></rect></clipPath><linearGradient x1="0" y1="0" x2="0" y2="1" id="highcharts-xbv87p4-12"><stop offset="0" stop-color="#ffffff" stop-opacity="1"></stop><stop offset="1" stop-color="#e6e6e6" stop-opacity="1"></stop></linearGradient><linearGradient x1="0" y1="0" x2="0" y2="1" id="highcharts-xbv87p4-13"><stop offset="0" stop-color="#DDD" stop-opacity="1"></stop><stop offset="1" stop-color="#FFF" stop-opacity="1"></stop></linearGradient></defs><rect fill="#ffffff" class="highcharts-background" x="0" y="0" width="600" height="300" rx="0" ry="0"></rect><rect fill="none" class="highcharts-plot-background" x="10" y="53" width="580" height="232"></rect><g class="highcharts-pane-group" data-z-index="0"><path fill="url(#highcharts-xbv87p4-12)" d="M 300 65.47 A 103.53 103.53 0 1 1 299.89647001725496 65.47005176499569 M 300 169 A 0 0 0 1 0 300 169 " class="highcharts-pane " stroke="#cccccc" stroke-width="1"></path></g><g class="highcharts-grid highcharts-yaxis-grid" data-z-index="1"><path fill="none" class="highcharts-minor-grid-line" d="M 300 169 L 263.2 232.73946971853468" opacity="1"></path><path fill="none" class="highcharts-minor-grid-line" d="M 300 169 L 247.9569409046701 221.04305909532988" opacity="1"></path><path fill="none" class="highcharts-minor-grid-line" d="M 300 169 L 236.26053028146532 205.79999999999998" opacity="1"></path><path fill="none" class="highcharts-minor-grid-line" d="M 300 169 L 228.90785918512455 188.04908171954548" opacity="1"></path><path fill="none" class="highcharts-minor-grid-line" d="M 300 169 L 226.4 169" opacity="1"></path><path fill="none" class="highcharts-minor-grid-line" d="M 300 169 L 228.90785918512458 149.95091828045446" opacity="1"></path><path fill="none" class="highcharts-minor-grid-line" d="M 300 169 L 236.26053028146532 132.2" opacity="1"></path><path fill="none" class="highcharts-minor-grid-line" d="M 300 169 L 247.95694090467012 116.9569409046701" opacity="1"></path><path fill="none" class="highcharts-minor-grid-line" d="M 300 169 L 263.2 105.26053028146532" opacity="1"></path><path fill="none" class="highcharts-minor-grid-line" d="M 300 169 L 280.95091828045446 97.90785918512458" opacity="1"></path><path fill="none" class="highcharts-minor-grid-line" d="M 300 169 L 300 95.4" opacity="1"></path><path fill="none" class="highcharts-minor-grid-line" d="M 300 169 L 319.0490817195455 97.90785918512458" opacity="1"></path><path fill="none" class="highcharts-minor-grid-line" d="M 300 169 L 336.8 105.26053028146532" opacity="1"></path><path fill="none" class="highcharts-minor-grid-line" d="M 300 169 L 352.04305909532985 116.95694090467009" opacity="1"></path><path fill="none" class="highcharts-minor-grid-line" d="M 300 169 L 363.7394697185347 132.2" opacity="1"></path><path fill="none" class="highcharts-minor-grid-line" d="M 300 169 L 371.0921408148754 149.95091828045443" opacity="1"></path><path fill="none" class="highcharts-minor-grid-line" d="M 300 169 L 373.6 168.99999999999994" opacity="1"></path><path fill="none" class="highcharts-minor-grid-line" d="M 300 169 L 371.0921408148754 188.0490817195455" opacity="1"></path><path fill="none" class="highcharts-minor-grid-line" d="M 300 169 L 363.7394697185347 205.79999999999995" opacity="1"></path><path fill="none" class="highcharts-minor-grid-line" d="M 300 169 L 352.04305909532997 221.04305909532985" opacity="1"></path><path fill="none" class="highcharts-minor-grid-line" d="M 300 169 L 336.8 232.73946971853468" opacity="1"></path><path fill="none" data-z-index="1" class="highcharts-grid-line" d="M 300 169 L 263.2 232.73946971853468" opacity="1"></path><path fill="none" data-z-index="1" class="highcharts-grid-line" d="M 300 169 L 228.90785918512458 149.95091828045446" opacity="1"></path><path fill="none" data-z-index="1" class="highcharts-grid-line" d="M 300 169 L 300 95.4" opacity="1"></path><path fill="none" data-z-index="1" class="highcharts-grid-line" d="M 300 169 L 371.0921408148754 149.95091828045443" opacity="1"></path><path fill="none" data-z-index="1" class="highcharts-grid-line" d="M 300 169 L 336.8 232.73946971853468" opacity="1"></path></g><g class="highcharts-grid highcharts-yaxis-grid" data-z-index="1"><path fill="none" class="highcharts-minor-grid-line" d="M 300 169 L 260.7 237.06959673745686" opacity="1"></path><path fill="none" class="highcharts-minor-grid-line" d="M 300 169 L 247.30775126503647 227.32226781644158" opacity="1"></path><path fill="none" class="highcharts-minor-grid-line" d="M 300 169 L 236.25556140435322 214.98485128959115" opacity="1"></path><path fill="none" class="highcharts-minor-grid-line" d="M 300 169 L 228.03425735330842 200.60525091357698" opacity="1"></path><path fill="none" class="highcharts-minor-grid-line" d="M 300 169 L 223.00894661755393 184.82206367896868" opacity="1"></path><path fill="none" class="highcharts-minor-grid-line" d="M 300 169 L 221.40280287567697 168.33621976505205" opacity="1"></path><path fill="none" class="highcharts-minor-grid-line" d="M 300 169 L 223.28715485261876 151.87985428234026" opacity="1"></path><path fill="none" class="highcharts-minor-grid-line" d="M 300 169 L 228.5783186162683 136.183793206394" opacity="1"></path><path fill="none" class="highcharts-minor-grid-line" d="M 300 169 L 237.04131397470638 121.94509745022845" opacity="1"></path><path fill="none" class="highcharts-minor-grid-line" d="M 300 169 L 248.30029992917213 109.7961064406534" opacity="1"></path><path fill="none" class="highcharts-minor-grid-line" d="M 300 169 L 261.85526574505707 100.27635597103584" opacity="1"></path><path fill="none" class="highcharts-minor-grid-line" d="M 300 169 L 277.1042363916963 93.80861745656836" opacity="1"></path><path fill="none" class="highcharts-minor-grid-line" d="M 300 169 L 293.37000620901665 90.68012268694797" opacity="1"></path><path fill="none" class="highcharts-minor-grid-line" d="M 300 169 L 309.93021356087934 91.0298078838116" opacity="1"></path><path fill="none" class="highcharts-minor-grid-line" d="M 300 169 L 326.0494208619848 94.84214355339557" opacity="1"></path><path fill="none" class="highcharts-minor-grid-line" d="M 300 169 L 341.0117753067136 101.94782415020649" opacity="1"></path><path fill="none" class="highcharts-minor-grid-line" d="M 300 169 L 354.152799839349 112.03128692379119" opacity="1"></path><path fill="none" class="highcharts-minor-grid-line" d="M 300 169 L 364.8889025310399 124.6447260371757" opacity="1"></path><path fill="none" class="highcharts-minor-grid-line" d="M 300 169 L 372.7432938542558 139.22797959100873" opacity="1"></path><path fill="none" class="highcharts-minor-grid-line" d="M 300 169 L 377.36716087048615 155.13340637213625" opacity="1"></path><path fill="none" class="highcharts-minor-grid-line" d="M 300 169 L 378.55515798707586 171.6546475520406" opacity="1"></path><path fill="none" class="highcharts-minor-grid-line" d="M 300 169 L 376.2545263398267 188.05799603024064" opacity="1"></path><path fill="none" class="highcharts-minor-grid-line" d="M 300 169 L 370.5674368102603 203.61498031243002" opacity="1"></path><path fill="none" class="highcharts-minor-grid-line" d="M 300 169 L 361.74645262431557 217.6347158757317" opacity="1"></path><path fill="none" class="highcharts-minor-grid-line" d="M 300 169 L 350.18331303814074 229.49458729932763" opacity="1"></path><path fill="none" data-z-index="1" class="highcharts-grid-line" d="M 300 169 L 260.7 237.06959673745686" opacity="1"></path><path fill="none" data-z-index="1" class="highcharts-grid-line" d="M 300 169 L 221.40280287567697 168.33621976505205" opacity="1"></path><path fill="none" data-z-index="1" class="highcharts-grid-line" d="M 300 169 L 261.85526574505707 100.27635597103584" opacity="1"></path><path fill="none" data-z-index="1" class="highcharts-grid-line" d="M 300 169 L 341.0117753067136 101.94782415020649" opacity="1"></path><path fill="none" data-z-index="1" class="highcharts-grid-line" d="M 300 169 L 378.55515798707586 171.6546475520406" opacity="1"></path></g><rect fill="none" class="highcharts-plot-border" data-z-index="1" x="10" y="53" width="580" height="232"></rect><g class="highcharts-axis highcharts-yaxis" data-z-index="2"><path fill="none" class="highcharts-minor-tick" stroke="#339" stroke-width="1" d="M 263.2 232.73946971853468 L 265.7 228.40934269961247" opacity="1"></path><path fill="none" class="highcharts-minor-tick" stroke="#339" stroke-width="1" d="M 247.9569409046701 221.04305909532988 L 251.49247481060283 217.50752518939714" opacity="1"></path><path fill="none" class="highcharts-minor-tick" stroke="#339" stroke-width="1" d="M 236.26053028146532 205.79999999999998 L 240.5906573003875 203.29999999999998" opacity="1"></path><path fill="none" class="highcharts-minor-tick" stroke="#339" stroke-width="1" d="M 228.90785918512455 188.04908171954548 L 233.7374883165699 186.7549864940329" opacity="1"></path><path fill="none" class="highcharts-minor-tick" stroke="#339" stroke-width="1" d="M 226.4 169 L 231.4 169" opacity="1"></path><path fill="none" class="highcharts-minor-tick" stroke="#339" stroke-width="1" d="M 228.90785918512458 149.95091828045446 L 233.7374883165699 151.24501350596705" opacity="1"></path><path fill="none" class="highcharts-minor-tick" stroke="#339" stroke-width="1" d="M 236.26053028146532 132.2 L 240.59065730038753 134.7" opacity="1"></path><path fill="none" class="highcharts-minor-tick" stroke="#339" stroke-width="1" d="M 247.95694090467012 116.9569409046701 L 251.49247481060286 120.49247481060284" opacity="1"></path><path fill="none" class="highcharts-minor-tick" stroke="#339" stroke-width="1" d="M 263.2 105.26053028146532 L 265.7 109.59065730038752" opacity="1"></path><path fill="none" class="highcharts-minor-tick" stroke="#339" stroke-width="1" d="M 280.95091828045446 97.90785918512458 L 282.24501350596705 102.73748831656992" opacity="1"></path><path fill="none" class="highcharts-minor-tick" stroke="#339" stroke-width="1" d="M 300 95.4 L 300 100.4" opacity="1"></path><path fill="none" class="highcharts-minor-tick" stroke="#339" stroke-width="1" d="M 319.0490817195455 97.90785918512458 L 317.7549864940329 102.73748831656992" opacity="1"></path><path fill="none" class="highcharts-minor-tick" stroke="#339" stroke-width="1" d="M 336.8 105.26053028146532 L 334.3 109.5906573003875" opacity="1"></path><path fill="none" class="highcharts-minor-tick" stroke="#339" stroke-width="1" d="M 352.04305909532985 116.95694090467009 L 348.50752518939714 120.49247481060283" opacity="1"></path><path fill="none" class="highcharts-minor-tick" stroke="#339" stroke-width="1" d="M 363.7394697185347 132.2 L 359.40934269961247 134.7" opacity="1"></path><path fill="none" class="highcharts-minor-tick" stroke="#339" stroke-width="1" d="M 371.0921408148754 149.95091828045443 L 366.26251168343003 151.24501350596705" opacity="1"></path><path fill="none" class="highcharts-minor-tick" stroke="#339" stroke-width="1" d="M 373.6 168.99999999999994 L 368.6 168.99999999999994" opacity="1"></path><path fill="none" class="highcharts-minor-tick" stroke="#339" stroke-width="1" d="M 371.0921408148754 188.0490817195455 L 366.2625116834301 186.7549864940329" opacity="1"></path><path fill="none" class="highcharts-minor-tick" stroke="#339" stroke-width="1" d="M 363.7394697185347 205.79999999999995 L 359.4093426996125 203.29999999999995" opacity="1"></path><path fill="none" class="highcharts-minor-tick" stroke="#339" stroke-width="1" d="M 352.04305909532997 221.04305909532985 L 348.5075251893972 217.50752518939711" opacity="1"></path><path fill="none" class="highcharts-minor-tick" stroke="#339" stroke-width="1" d="M 336.8 232.73946971853468 L 334.3 228.40934269961247" opacity="1"></path><path fill="none" class="highcharts-tick" stroke="#339" stroke-width="2" d="M 263.2 232.73946971853468 L 265.7 228.40934269961247" opacity="1"></path><path fill="none" class="highcharts-tick" stroke="#339" stroke-width="2" d="M 228.90785918512458 149.95091828045446 L 233.7374883165699 151.24501350596705" opacity="1"></path><path fill="none" class="highcharts-tick" stroke="#339" stroke-width="2" d="M 300 95.4 L 300 100.4" opacity="1"></path><path fill="none" class="highcharts-tick" stroke="#339" stroke-width="2" d="M 371.0921408148754 149.95091828045443 L 366.26251168343003 151.24501350596705" opacity="1"></path><path fill="none" class="highcharts-tick" stroke="#339" stroke-width="2" d="M 336.8 232.73946971853468 L 334.3 228.40934269961247" opacity="1"></path><path fill="none" class="highcharts-axis-line" stroke="#339" stroke-width="2" data-z-index="7" d="M 263.2 232.73946971853468 A 73.6 73.6 0 1 1 336.8637210590968 232.7026378549358 M 300 169 A 0 0 0 1 0 300 169 "></path></g><g class="highcharts-axis highcharts-yaxis" data-z-index="2"><path fill="none" class="highcharts-minor-tick" stroke="#933" stroke-width="1" d="M 260.7 237.06959673745686 L 258.2 241.39972375637905" opacity="1"></path><path fill="none" class="highcharts-minor-tick" stroke="#933" stroke-width="1" d="M 247.30775126503647 227.32226781644158 L 243.9558270452551 231.0323357436961" opacity="1"></path><path fill="none" class="highcharts-minor-tick" stroke="#933" stroke-width="1" d="M 236.25556140435322 214.98485128959115 L 232.20057167180568 217.91009628256768" opacity="1"></path><path fill="none" class="highcharts-minor-tick" stroke="#933" stroke-width="1" d="M 228.03425735330842 200.60525091357698 L 223.45628390250107 202.61576305820654" opacity="1"></path><path fill="none" class="highcharts-minor-tick" stroke="#933" stroke-width="1" d="M 223.00894661755393 184.82206367896868 L 218.11129691129145 185.82855627941197" opacity="1"></path><path fill="none" class="highcharts-minor-tick" stroke="#933" stroke-width="1" d="M 221.40280287567697 168.33621976505205 L 216.4029811756564 168.29399455926657" opacity="1"></path><path fill="none" class="highcharts-minor-tick" stroke="#933" stroke-width="1" d="M 223.28715485261876 151.87985428234026 L 218.40720287123315 150.790786488596" opacity="1"></path><path fill="none" class="highcharts-minor-tick" stroke="#933" stroke-width="1" d="M 228.5783186162683 136.183793206394 L 224.03495466056017 134.0962482449687" opacity="1"></path><path fill="none" class="highcharts-minor-tick" stroke="#933" stroke-width="1" d="M 237.04131397470638 121.94509745022845 L 233.03630850235947 118.95178303866535" opacity="1"></path><path fill="none" class="highcharts-minor-tick" stroke="#933" stroke-width="1" d="M 248.30029992917213 109.7961064406534 L 245.0115149373892 106.02995545087309" opacity="1"></path><path fill="none" class="highcharts-minor-tick" stroke="#933" stroke-width="1" d="M 261.85526574505707 100.27635597103584 L 259.42875593240166 95.90462289031294" opacity="1"></path><path fill="none" class="highcharts-minor-tick" stroke="#933" stroke-width="1" d="M 277.1042363916963 93.80861745656836 L 275.64776287971773 89.02545062810579" opacity="1"></path><path fill="none" class="highcharts-minor-tick" stroke="#933" stroke-width="1" d="M 293.37000620901665 90.68012268694797 L 292.94825087880145 85.69794219629581" opacity="1"></path><path fill="none" class="highcharts-minor-tick" stroke="#933" stroke-width="1" d="M 309.93021356087934 91.0298078838116 L 310.56190653549 86.06987199855789" opacity="1"></path><path fill="none" class="highcharts-minor-tick" stroke="#933" stroke-width="1" d="M 326.0494208619848 94.84214355339557 L 327.706508703078 90.12472265984566" opacity="1"></path><path fill="none" class="highcharts-minor-tick" stroke="#933" stroke-width="1" d="M 341.0117753067136 101.94782415020649 L 343.6206668656649 97.68241856179722" opacity="1"></path><path fill="none" class="highcharts-minor-tick" stroke="#933" stroke-width="1" d="M 354.152799839349 112.03128692379119 L 357.5976344347274 108.40732298764559" opacity="1"></path><path fill="none" class="highcharts-minor-tick" stroke="#933" stroke-width="1" d="M 364.8889025310399 124.6447260371757 L 369.0166953129127 121.82314372401893" opacity="1"></path><path fill="none" class="highcharts-minor-tick" stroke="#933" stroke-width="1" d="M 372.7432938542558 139.22797959100873 L 377.3707298500736 137.33408516295583" opacity="1"></path><path fill="none" class="highcharts-minor-tick" stroke="#933" stroke-width="1" d="M 377.36716087048615 155.13340637213625 L 382.2887359894738 154.25130754084722" opacity="1"></path><path fill="none" class="highcharts-minor-tick" stroke="#933" stroke-width="1" d="M 378.55515798707586 171.6546475520406 L 383.5523054417244 171.82351826145793" opacity="1"></path><path fill="none" class="highcharts-minor-tick" stroke="#933" stroke-width="1" d="M 376.2545263398267 188.05799603024064 L 381.10532318078265 189.27033674463254" opacity="1"></path><path fill="none" class="highcharts-minor-tick" stroke="#933" stroke-width="1" d="M 370.5674368102603 203.61498031243002 L 375.056459508114 205.8169510702182" opacity="1"></path><path fill="none" class="highcharts-minor-tick" stroke="#933" stroke-width="1" d="M 361.74645262431557 217.6347158757317 L 365.67434401263085 220.72852731820828" opacity="1"></path><path fill="none" class="highcharts-minor-tick" stroke="#933" stroke-width="1" d="M 350.18331303814074 229.49458729932763 L 353.37563575049063 233.3428434888523" opacity="1"></path><path fill="none" class="highcharts-tick" stroke="#933" stroke-width="2" d="M 260.7 237.06959673745686 L 258.2 241.39972375637905" opacity="1"></path><path fill="none" class="highcharts-tick" stroke="#933" stroke-width="2" d="M 221.40280287567697 168.33621976505205 L 216.4029811756564 168.29399455926657" opacity="1"></path><path fill="none" class="highcharts-tick" stroke="#933" stroke-width="2" d="M 261.85526574505707 100.27635597103584 L 259.42875593240166 95.90462289031294" opacity="1"></path><path fill="none" class="highcharts-tick" stroke="#933" stroke-width="2" d="M 341.0117753067136 101.94782415020649 L 343.6206668656649 97.68241856179722" opacity="1"></path><path fill="none" class="highcharts-tick" stroke="#933" stroke-width="2" d="M 378.55515798707586 171.6546475520406 L 383.5523054417244 171.82351826145793" opacity="1"></path><path fill="none" class="highcharts-axis-line" stroke="#933" stroke-width="2" data-z-index="7" d="M 260.7 237.06959673745686 A 78.6 78.6 0 1 1 339.36804993539414 237.03026270921134 M 300 169 A 0 0 0 1 0 300 169 "></path></g><g data-z-index="2" class="highcharts-data-labels highcharts-series-0 highcharts-gauge-series highcharts-color-0 " transform="translate(10,53) scale(1 1)"><g class="highcharts-label highcharts-data-label highcharts-data-label-color-0" data-z-index="1" transform="translate(261,-9999)" opacity="0"><rect fill="url(#highcharts-xbv87p4-13)" class="highcharts-label-box highcharts-data-label-box" x="0.5" y="0.5" width="58" height="41" rx="3" ry="3" stroke="#cccccc" stroke-width="1"></rect><text x="5" data-z-index="1" style="font-size:11px;font-weight:bold;color:#000000;fill:#000000;" y="16"><tspan style="fill: rgb(51, 51, 153);" x="5" y="16" class="highcharts-text-outline" fill="#FFFFFF" stroke="#FFFFFF" stroke-width="2px" stroke-linejoin="round">78 km/h</tspan><tspan style="fill: rgb(153, 51, 51);" x="5" dy="14" class="highcharts-text-outline" fill="#FFFFFF" stroke="#FFFFFF" stroke-width="2px" stroke-linejoin="round">48 mph</tspan><tspan style="fill:#339" x="5" y="16">78 km/h</tspan><tspan style="fill:#933" x="5" dy="14">48 mph</tspan></text></g></g><g class="highcharts-series-group" data-z-index="3"><g data-z-index="0.1" class="highcharts-series highcharts-series-0 highcharts-gauge-series highcharts-color-0 " transform="translate(10,53) scale(1 1)" clip-path="url(#highcharts-xbv87p4-11-)"><path fill="#000000" d="M -7.888 -1.5 L 55.215999999999994 -1.5 78.88 -0.5 78.88 0.5 55.215999999999994 1.5 -7.888 1.5 z" transform="translate(290,116) rotate(-123.00000000000001 0 0)" data-z-index="1" class="highcharts-dial"></path><circle cx="0" cy="0" r="5" data-z-index="2" class="highcharts-pivot" transform="translate(290,116)" fill="#000000"></circle></g><g data-z-index="0.1" class="highcharts-markers highcharts-series-0 highcharts-gauge-series highcharts-color-0 " transform="translate(10,53) scale(1 1)" clip-path="none"></g></g><text x="300" text-anchor="middle" class="highcharts-title" data-z-index="4" style="color:#333333;font-size:18px;fill:#333333;" y="24"><tspan>Speedometer with dual axes</tspan></text><text x="300" text-anchor="middle" class="highcharts-subtitle" data-z-index="4" style="color:#666666;fill:#666666;" y="52"></text><text x="10" text-anchor="start" class="highcharts-caption" data-z-index="4" style="color:#666666;fill:#666666;" y="297"></text><g class="highcharts-legend" data-z-index="7"><rect fill="none" class="highcharts-legend-box" rx="0" ry="0" x="0" y="0" width="8" height="8" visibility="hidden"></rect><g data-z-index="1"><g></g></g></g><g class="highcharts-axis-labels highcharts-yaxis-labels" data-z-index="7"><text x="273.2" style="color:#666666;cursor:default;font-size:11px;fill:#666666;" text-anchor="middle" transform="translate(0,0) rotate(-150 273.2 215.4189616428459)" y="215.4189616428459" opacity="1">0</text><text x="248.22637571090596" style="color:#666666;cursor:default;font-size:11px;fill:#666666;" text-anchor="middle" transform="translate(0,0) rotate(-75 248.22637571090596 155.12729918250488)" y="155.12729918250488" opacity="1">50</text><text x="300" style="color:#666666;cursor:default;font-size:11px;fill:#666666;" text-anchor="middle" transform="translate(0,0)" y="115.4" opacity="1">100</text><text x="351.7736242890941" style="color:#666666;cursor:default;font-size:11px;fill:#666666;" text-anchor="middle" transform="translate(0,0) rotate(74.99999999999996 351.7736242890941 155.12729918250486)" y="155.12729918250486" opacity="1">150</text><text x="326.8" style="color:#666666;cursor:default;font-size:11px;fill:#666666;" text-anchor="middle" transform="translate(0,0) rotate(150 326.8 215.4189616428459)" y="215.4189616428459" opacity="1">200</text></g><g class="highcharts-axis-labels highcharts-yaxis-labels" data-z-index="7"><text x="254.69999999999996" style="color:#666666;cursor:default;font-size:11px;fill:#666666;" text-anchor="middle" transform="translate(0,0) rotate(-150 254.69999999999996 247.46190158287013)" y="247.46190158287013" opacity="1">0</text><text x="209.40323079562765" style="color:#666666;cursor:default;font-size:11px;fill:#666666;" text-anchor="middle" transform="translate(0,0) rotate(-89.51612903225806 209.40323079562765 168.23487927116688)" y="168.23487927116688" opacity="1">25</text><text x="256.0316421946841" style="color:#666666;cursor:default;font-size:11px;fill:#666666;" text-anchor="middle" transform="translate(0,0) rotate(-29.032258064516125 256.0316421946841 89.78419657730086)" y="89.78419657730086" opacity="1">50</text><text x="347.27311504819664" style="color:#666666;cursor:default;font-size:11px;fill:#666666;" text-anchor="middle" transform="translate(0,0) rotate(31.45161290322582 347.27311504819664 91.71085073802426)" y="91.71085073802426" opacity="1">75</text><text x="390.5483118782324" style="color:#666666;cursor:default;font-size:11px;fill:#666666;" text-anchor="middle" transform="translate(0,0) rotate(91.93548387096774 390.5483118782324 172.0599372546422)" y="172.0599372546422" opacity="1">100</text></g><text x="590" class="highcharts-credits" text-anchor="end" data-z-index="8" style="cursor:pointer;color:#999999;font-size:9px;fill:#999999;" y="295">Highcharts.com</text></svg>